Coordinates
version=1
nRows=16
nColumns=40
inDegrees=yes

Units are S.I. units (second, meters, Newtons, ...)
If the header above contains a line with 'inDegrees', this indicates whether rotational values are in degrees (yes) or radians (no).

endheader
time	pelvis_tilt	pelvis_list	pelvis_rotation	pelvis_tx	pelvis_ty	pelvis_tz	hip_flexion_r	hip_adduction_r	hip_rotation_r	knee_angle_r	knee_angle_r_beta	ankle_angle_r	subtalar_angle_r	mtp_angle_r	hip_flexion_l	hip_adduction_l	hip_rotation_l	knee_angle_l	knee_angle_l_beta	ankle_angle_l	subtalar_angle_l	mtp_angle_l	lumbar_extension	lumbar_bending	lumbar_rotation	arm_flex_r	arm_add_r	arm_rot_r	elbow_flex_r	pro_sup_r	wrist_flex_r	wrist_dev_r	arm_flex_l	arm_add_l	arm_rot_l	elbow_flex_l	pro_sup_l	wrist_flex_l	wrist_dev_l
      5.00000000	     48.89619442	     43.78080575	     83.55818792	      0.42872480	      0.68068469	      0.69272125	     94.98004059	     28.37967474	     31.91418289	     50.56252640	      0.88248256	      0.52514234	      0.00000000	      0.00000000	     70.60825363	    -49.82840841	    -39.94897311	     59.28763434	      1.03476442	     18.69616780	      0.00000000	      0.00000000	     89.68694076	    -89.96493822	    -89.69184106	      0.00000000	     -8.28903605	      0.00000000	     82.02543274	     49.70672630	      0.00000000	      0.00000000	      0.00000000	     -8.28903605	      0.00000000	     82.02543274	     49.70672630	      0.00000000	      0.00000000
      5.00500000	     48.92151624	     43.84926909	     83.48978522	      0.42861703	      0.68081453	      0.69314922	     94.83603491	     28.40779872	     31.95836358	     50.45904908	      0.88067654	      0.53370385	      0.00000000	      0.00000000	     70.46683870	    -49.82854276	    -39.94912136	     59.20661069	      1.03335030	     18.62846069	      0.00000000	      0.00000000	     89.68688900	    -89.96515393	    -89.68943109	      0.00000000	     -8.83035575	      0.00000000	     81.09559115	     48.53689609	      0.00000000	      0.00000000	      0.00000000	     -8.83035575	      0.00000000	     81.09559115	     48.53689609	      0.00000000	      0.00000000
      5.01000000	     48.93476636	     43.82073504	     83.44860238	      0.42853400	      0.68085410	      0.69335479	     94.82044097	     28.40712936	     31.95306707	     50.37601499	      0.87922733	      0.49395378	      0.00000000	      0.00000000	     70.45938642	    -49.82787593	    -39.94911084	     59.16089097	      1.03255234	     18.63387104	      0.00000000	      0.00000000	     89.68681409	    -89.96512210	    -89.68941783	      0.00000000	     -9.27474360	      0.00000000	     80.40125225	     47.84215635	      0.00000000	      0.00000000	      0.00000000	     -9.27474360	      0.00000000	     80.40125225	     47.84215635	      0.00000000	      0.00000000
      5.01500000	     48.94371504	     43.78576092	     83.39952034	      0.42845194	      0.68083261	      0.69358087	     94.81200725	     28.41606469	     31.95142980	     50.29839776	      0.87787265	      0.45150157	      0.00000000	      0.00000000	     70.45820827	    -49.82718690	    -39.94905123	     59.11565448	      1.03176281	     18.63648185	      0.00000000	      0.00000000	     89.68717522	    -89.96509048	    -89.68980400	      0.00000000	     -9.65624212	      0.00000000	     79.81421513	     47.26494595	      0.00000000	      0.00000000	      0.00000000	     -9.65624212	      0.00000000	     79.81421513	     47.26494595	      0.00000000	      0.00000000
      5.02000000	     48.96825860	     43.65630423	     83.39453091	      0.42831021	      0.68083959	      0.69359019	     94.97839152	     28.36118830	     31.78087462	     50.31147171	      0.87810083	      0.47418982	      0.00000000	      0.00000000	     70.59554088	    -49.82636652	    -39.94886051	     59.09935548	      1.03147834	     18.54429253	      0.00000000	      0.00000000	     89.68858807	    -89.96492409	    -89.69377873	      0.00000000	    -10.01980690	      0.00000000	     79.28792985	     46.82253326	      0.00000000	      0.00000000	      0.00000000	    -10.01980690	      0.00000000	     79.28792985	     46.82253326	      0.00000000	      0.00000000
      5.02500000	     87.86534647	     47.03505166	     85.54425656	      0.40549475	      0.61313731	      0.69743183	     94.07644858	     -6.61822095	     -0.03540237	     56.25973042	      0.98191753	      8.32028759	      0.00000000	      0.00000000	     93.29513949	    -21.78659392	     -3.54884896	     58.38249691	      1.01896680	     12.32138582	      0.00000000	      0.00000000	    -46.66083755	    -10.06821027	      1.26215490	      0.00000000	    -11.15730983	      0.00000000	     78.18864210	     47.42166789	      0.00000000	      0.00000000	      0.00000000	    -11.15730983	      0.00000000	     78.18864210	     47.42166789	      0.00000000	      0.00000000
      5.03000000	     87.63932213	     47.18887497	     85.05389962	      0.40519621	      0.61449600	      0.69813969	     93.79201642	     -5.84504157	      0.16068912	     55.95583644	      0.97661358	      8.16380777	      0.00000000	      0.00000000	     93.07438082	    -22.67691797	     -4.00426515	     58.52111367	      1.02138612	     12.30513383	      0.00000000	      0.00000000	    -46.81077607	    -10.72041995	      1.28840986	      0.00000000	    -11.21278816	      0.00000000	     78.09932796	     47.24031031	      0.00000000	      0.00000000	      0.00000000	    -11.21278816	      0.00000000	     78.09932796	     47.24031031	      0.00000000	      0.00000000
      5.03500000	     87.76309981	     46.94238801	     85.56851186	      0.40533414	      0.61324142	      0.69790371	     94.08530867	     -6.58462351	     -0.02744065	     56.09631602	      0.97906541	      8.16478476	      0.00000000	      0.00000000	     93.24879976	    -21.82246926	     -3.64614610	     58.24617317	      1.01658750	     12.26926332	      0.00000000	      0.00000000	    -46.67008794	    -10.13753702	      1.24874211	      0.00000000	    -11.27685262	      0.00000000	     77.99716295	     47.04042583	      0.00000000	      0.00000000	      0.00000000	    -11.27685262	      0.00000000	     77.99716295	     47.04042583	      0.00000000	      0.00000000
      5.04000000	     87.78414172	     46.92201130	     85.56496211	      0.40519676	      0.61311626	      0.69820272	     94.03694785	     -6.61867349	     -0.09651495	     56.01436252	      0.97763505	      8.20738139	      0.00000000	      0.00000000	     93.20979767	    -21.79550609	     -3.65708553	     58.17614406	      1.01536526	     12.30181767	      0.00000000	      0.00000000	    -46.70715643	    -10.08645113	      1.24194869	      0.00000000	    -11.41344452	      0.00000000	     77.78975992	     46.69519216	      0.00000000	      0.00000000	      0.00000000	    -11.41344452	      0.00000000	     77.78975992	     46.69519216	      0.00000000	      0.00000000
      5.04500000	     87.59117202	     47.10339657	     84.97672388	      0.40494361	      0.61462862	      0.69894324	     93.73195685	     -5.73428792	      0.14959867	     55.72614874	      0.97260478	      7.99814434	      0.00000000	      0.00000000	     92.96359694	    -22.79709827	     -4.13243033	     58.28801282	      1.01731774	     12.24826540	      0.00000000	      0.00000000	    -46.87510630	    -10.72740272	      1.18927581	      0.00000000	    -11.46388738	      0.00000000	     77.71362802	     46.57144564	      0.00000000	      0.00000000	      0.00000000	    -11.46388738	      0.00000000	     77.71362802	     46.57144564	      0.00000000	      0.00000000
      5.05000000	     87.55182613	     46.89476817	     85.46933835	      0.40503580	      0.61364598	      0.69875305	     93.97138182	     -6.30984249	      0.07962001	     55.78061182	      0.97355534	      8.10557967	      0.00000000	      0.00000000	     93.09943784	    -22.15957009	     -4.00321399	     58.13982620	      1.01473139	     12.29702282	      0.00000000	      0.00000000	    -46.79761334	    -10.40850257	      1.54249163	      0.00000000	    -11.51356584	      0.00000000	     77.63892636	     46.45245563	      0.00000000	      0.00000000	      0.00000000	    -11.51356584	      0.00000000	     77.63892636	     46.45245563	      0.00000000	      0.00000000
      5.05500000	     87.40904823	     47.05480657	     84.90845409	      0.40476807	      0.61496969	      0.69949951	     93.67721806	     -5.50118747	      0.27790107	     55.50901479	      0.96881507	      7.91056198	      0.00000000	      0.00000000	     92.86639731	    -23.08010697	     -4.44842547	     58.20918404	      1.01594192	     12.24350835	      0.00000000	      0.00000000	    -46.92929684	    -10.96499229	      1.43162625	      0.00000000	    -11.55935034	      0.00000000	     77.57136987	     46.35162603	      0.00000000	      0.00000000	      0.00000000	    -11.55935034	      0.00000000	     77.57136987	     46.35162603	      0.00000000	      0.00000000
      5.06000000	     87.72198449	     46.76547591	     85.65198023	      0.40493842	      0.61285936	      0.69919027	     93.99357409	     -6.70342832	     -0.15399400	     55.69157349	      0.97200132	      8.02649852	      0.00000000	      0.00000000	     93.12512870	    -21.74401519	     -3.82297588	     57.87657562	      1.01013680	     12.16820566	      0.00000000	      0.00000000	    -46.76955185	     -9.98328400	      1.12579473	      0.00000000	    -11.61291687	      0.00000000	     77.49269120	     46.23701407	      0.00000000	      0.00000000	      0.00000000	    -11.61291687	      0.00000000	     77.49269120	     46.23701407	      0.00000000	      0.00000000
      5.06500000	     87.50644821	     46.92139363	     85.11092107	      0.40467825	      0.61424653	      0.69991149	     93.71004065	     -5.87039429	      0.07004145	     55.38686512	      0.96668316	      7.84919165	      0.00000000	      0.00000000	     92.90596602	    -22.70892144	     -4.33624024	     58.00211130	      1.01232782	     12.12598387	      0.00000000	      0.00000000	    -46.92029977	    -10.62522527	      1.10881714	      0.00000000	    -11.65933205	      0.00000000	     77.42629438	     46.14839900	      0.00000000	      0.00000000	      0.00000000	    -11.65933205	      0.00000000	     77.42629438	     46.14839900	      0.00000000	      0.00000000
      5.07000000	     87.66694474	     46.69171619	     85.65418774	      0.40485661	      0.61281601	      0.69971977	     93.96814426	     -6.67176568	     -0.15825280	     55.50656611	      0.96877234	      7.89008173	      0.00000000	      0.00000000	     93.08717241	    -21.80711079	     -3.97742805	     57.73801751	      1.00771851	     12.06121320	      0.00000000	      0.00000000	    -46.81009330	    -10.00162690	      1.14529639	      0.00000000	    -11.70852244	      0.00000000	     77.35609063	     46.05631570	      0.00000000	      0.00000000	      0.00000000	    -11.70852244	      0.00000000	     77.35609063	     46.05631570	      0.00000000	      0.00000000
      5.07500000	     87.40857588	     46.82027252	     85.16762068	      0.40467733	      0.61411041	      0.70031572	     93.74403950	     -5.83274953	      0.18626578	     55.25413985	      0.96436667	      7.72660116	      0.00000000	      0.00000000	     92.88609101	    -22.73252903	     -4.48590981	     57.84233901	      1.00953926	     12.03422431	      0.00000000	      0.00000000	    -46.89171545	    -10.64864924	      1.08911755	      0.00000000	    -11.74686440	      0.00000000	     77.30340881	     45.99502959	      0.00000000	      0.00000000	      0.00000000	    -11.74686440	      0.00000000	     77.30340881	     45.99502959	      0.00000000	      0.00000000
